<svg width="39" height="38" xmlns="http://www.w3.org/2000/svg" xmlns:xlink="http://www.w3.org/1999/xlink" xmlns:svgjs="http://svgjs.com/svgjs" fill="#7f8da0"><svg xmlns="http://www.w3.org/2000/svg" width="39" height="38"><path paint-order="stroke fill markers" fill-rule="evenodd" d="M38.202 11.448c-.142-3.004-.828-5.664-3.028-7.855C32.982 1.4 30.322.715 27.319.565c-3.095-.176-12.372-.176-15.467 0-2.995.142-5.655.828-7.855 3.02C1.797 5.775 1.12 8.435.97 11.438c-.176 3.095-.176 12.372 0 15.467.142 3.004.828 5.664 3.028 7.855 2.2 2.192 4.852 2.878 7.855 3.029 3.095.175 12.372.175 15.467 0 3.003-.143 5.663-.828 7.855-3.029 2.191-2.192 2.877-4.851 3.028-7.855.176-3.095.176-12.363 0-15.458zm-3.998 18.78a6.326 6.326 0 0 1-3.564 3.563c-2.468.978-8.323.753-11.05.753-2.727 0-8.591.217-11.05-.753a6.326 6.326 0 0 1-3.564-3.564c-.979-2.467-.753-8.323-.753-11.05 0-2.727-.217-8.59.753-11.05a6.327 6.327 0 0 1 3.563-3.564c2.468-.979 8.324-.753 11.05-.753 2.728 0 8.592-.217 11.051.753a6.327 6.327 0 0 1 3.564 3.564c.978 2.467.752 8.323.752 11.05 0 2.727.226 8.591-.752 11.05zM31.836 9.171a2.237 2.237 0 0 1-2.242 2.242 2.242 2.242 0 1 1 2.242-2.242zm-12.246.394a9.596 9.596 0 0 0-9.612 9.611 9.596 9.596 0 0 0 9.612 9.612 9.596 9.596 0 0 0 9.611-9.612 9.596 9.596 0 0 0-9.611-9.611zm0 15.86c-3.438 0-6.25-2.803-6.25-6.249a6.255 6.255 0 0 1 6.25-6.249 6.255 6.255 0 0 1 6.249 6.25c0 3.445-2.811 6.248-6.25 6.248z"/></svg></svg>